<svg xmlns="http://www.w3.org/2000/svg" xml:space="preserve" width="512" height="512" style="enable-background:new 0 0 512 512" viewBox="0 0 16.933 16.933"><g xmlns="http://www.w3.org/2000/svg"><path fill="#e7ebef" d="M1.323 1.057a.798.798 0 0 0-.793.795v8.467c0 .435.358.793.793.793h13.229a.798.798 0 0 0 .794-.793V1.852a.8.8 0 0 0-.794-.795z" data-original="#e7ebef"/><path fill="#dbe1e7" d="M13.493 1.057a.8.8 0 0 1 .795.795V9.79c0 .435-.36.792-.795.792H1.323A.796.796 0 0 1 .53 9.79v.529c0 .435.358.793.793.793h13.229a.798.798 0 0 0 .794-.793V1.852a.8.8 0 0 0-.794-.795z" data-original="#dbe1e7"/><path fill="#fdd5a6" d="M2.913 11.641c-.729 0-1.324.594-1.324 1.322v.266c0 .728.595 1.322 1.324 1.322.728 0 1.322-.594 1.322-1.322v-.266c0-.728-.594-1.322-1.322-1.322zm11.109 0c-.728 0-1.322.594-1.322 1.322v.266c0 .728.594 1.322 1.322 1.322.729 0 1.324-.594 1.324-1.322v-.266c0-.728-.595-1.322-1.324-1.322z" data-original="#fdd5a6"/><path fill="#fdcc93" d="M2.913 11.641a1.32 1.32 0 0 0-.53.112c.466.205.794.67.794 1.21v.266c0 .54-.328 1.005-.794 1.21a1.325 1.325 0 0 0 1.852-1.21v-.266c0-.728-.594-1.322-1.322-1.322zm11.111 0c-.188 0-.367.041-.53.112.466.205.794.67.794 1.21v.266c0 .54-.328 1.005-.794 1.21a1.325 1.325 0 0 0 1.852-1.21v-.266c0-.728-.594-1.322-1.322-1.322z" data-original="#fdcc93"/><path fill="#fdd5a6" d="M8.466 11.641c-.729 0-1.324.594-1.324 1.322v.266c0 .728.595 1.322 1.324 1.322.728 0 1.322-.594 1.322-1.322v-.266c0-.728-.594-1.322-1.322-1.322z" data-original="#fdd5a6"/><path fill="#fdcc93" d="M8.466 11.641a1.32 1.32 0 0 0-.53.112c.466.205.794.67.794 1.21v.266c0 .54-.328 1.005-.794 1.21a1.325 1.325 0 0 0 1.852-1.21v-.266c0-.728-.594-1.322-1.322-1.322z" data-original="#fdcc93"/><path fill="#68b1fc" d="M1.852 2.116a.265.265 0 0 0-.265.265v7.408a.265.265 0 0 0 .265.264h12.17a.265.265 0 0 0 .266-.264V2.381a.265.265 0 0 0-.266-.265z" data-original="#68b1fc"/><path fill="#fc6067" d="M2.118 14.022A1.59 1.59 0 0 0 .53 15.61v.53a.265.265 0 0 0 .266.265h4.232a.265.265 0 0 0 .266-.266v-.53a1.59 1.59 0 0 0-1.588-1.587z" data-original="#fc6067"/><path fill="#68b1fc" d="M9.26 14.022a1.59 1.59 0 0 1 1.589 1.588v.53a.265.265 0 0 1-.266.265H6.351a.265.265 0 0 1-.266-.266v-.53a1.59 1.59 0 0 1 1.588-1.587z" data-original="#68b1fc"/><path fill="#59e78b" d="M14.82 14.022c.874 0 1.585.713 1.585 1.588v.53a.265.265 0 0 1-.264.265H11.91a.265.265 0 0 1-.266-.266v-.53a1.59 1.59 0 0 1 1.588-1.587z" data-original="#59e78b"/><path fill="#4fa4fb" d="M9.525 15.876H6.35a.265.265 0 0 1-.266-.266v.53c0 .146.119.265.266.265h4.232a.265.265 0 0 0 .266-.266v-.53a1.59 1.59 0 0 0-1.588-1.587H8.202A1.59 1.59 0 0 1 9.79 15.61a.265.265 0 0 1-.265.266z" data-original="#4fa4fb"/><path fill="#41e37a" d="M15.081 15.876h-3.174a.265.265 0 0 1-.265-.266v.53a.264.264 0 0 0 .265.265h4.232a.265.265 0 0 0 .266-.266v-.53a1.59 1.59 0 0 0-1.588-1.587H13.76a1.59 1.59 0 0 1 1.588 1.588.265.265 0 0 1-.266.266z" data-original="#41e37a"/><path fill="#fb4f56" d="M3.97 15.876H.796a.265.265 0 0 1-.266-.266v.53c0 .146.119.265.266.265h4.232a.265.265 0 0 0 .266-.266v-.53a1.59 1.59 0 0 0-1.588-1.587H2.647a1.59 1.59 0 0 1 1.588 1.588.265.265 0 0 1-.265.266z" data-original="#fb4f56"/><path fill="#4fa4fb" d="M1.853 2.116a.265.265 0 0 0-.267.265V9.79c.001.146.12.264.267.263H2.91a.265.265 0 0 1-.266-.263V2.91c0-.146.119-.266.266-.265h11.111c.147 0 .267.119.266.266v-.53a.265.265 0 0 0-.266-.265z" data-original="#4fa4fb"/><path fill="#fc6067" d="M8.731.53a.796.796 0 0 0-.792.793v4.232c0 .435.357.795.792.795h.264v1.322a.265.265 0 0 0 .437.202L11.21 6.35h4.4a.8.8 0 0 0 .795-.795V1.323A.798.798 0 0 0 15.61.53z" data-original="#fc6067"/><path fill="#e7ebef" d="M10.848 2.116v2.646c0 .208.228.334.405.225l2.117-1.322a.265.265 0 0 0 0-.45l-2.117-1.324c-.16-.1-.405-.003-.405.225z" data-original="#e7ebef"/><path fill="#fb4f56" d="M14.552.53c.435 0 .795.357.795.793v3.703a.8.8 0 0 1-.795.795H11.21L9.432 7.344a.265.265 0 0 1-.437-.201v.53a.265.265 0 0 0 .437.2L11.21 6.35h4.4a.8.8 0 0 0 .795-.795V1.323A.798.798 0 0 0 15.61.53z" data-original="#fb4f56"/><path fill="#fcbc60" d="M4.233 7.939c-.875 0-1.588.71-1.588 1.585v.529h5.822v-.529c0-.875-.712-1.585-1.587-1.585z" data-original="#fcbc60"/><path fill="#fbb04f" d="M5.821 7.939c.875 0 1.588.71 1.588 1.585v.529h1.058v-.529c0-.875-.712-1.585-1.587-1.585z" data-original="#fbb04f"/><path fill="#fdd5a6" d="M4.499 6.88v1.322c0 .02.002.04.006.06 0 0 .047.197.203.377.156.18.445.356.85.356.404 0 .69-.175.847-.356.156-.18.203-.376.203-.376a.261.261 0 0 0 .006-.06V6.88z" data-original="#fdd5a6"/><path fill="#fdcc93" d="M4.499 6.88v1.033a2.09 2.09 0 0 0 2.116 0V6.88z" data-original="#fdcc93"/><path fill="#fdd5a6" d="M3.97 5.026v1.06a1.59 1.59 0 0 0 1.588 1.587c.874 0 1.585-.713 1.585-1.588V5.026z" data-original="#fdd5a6"/><path fill="#fdcc93" d="M6.085 5.026v1.06A1.59 1.59 0 0 1 5.028 7.58c.166.06.344.093.53.093.874 0 1.585-.713 1.585-1.588V5.026z" data-original="#fdcc93"/><path fill="#5a626e" d="M5.292 3.175a1.59 1.59 0 0 0-1.588 1.588v.792c0 .148.118.267.266.267h.792c.676 0 1.374-.346 1.55-.46l.38.381a.27.27 0 0 0 .188.079h.263a.265.265 0 0 0 .266-.267v-.792a1.59 1.59 0 0 0-1.588-1.588z" data-original="#5a626e"/><path fill="#515663" d="M5.292 3.175c-.09 0-.178.01-.265.024a1.59 1.59 0 0 1 1.324 1.564v.639l.341.341a.27.27 0 0 0 .188.079h.263a.265.265 0 0 0 .266-.267v-.792a1.59 1.59 0 0 0-1.588-1.588z" data-original="#515663"/></g></svg>