<svg xmlns="http://www.w3.org/2000/svg" xml:space="preserve" width="512" height="512" class="hovered-paths" style="enable-background:new 0 0 512 512" viewBox="0 0 72 72"><g xmlns="http://www.w3.org/2000/svg"><path fill="#f1f7ff" d="m20.809 21.437 1.847.076c1.694.07 2.681 1.464 2.983 3.133l1.907 7.998 4.275-2.556 1.823 5.056-6.562 6.093a3.334 3.334 0 0 1-5.117-.996l-3.129-5.998z" data-original="#f1f7ff"/><path fill="#f9c4c0" d="m69.722 51.063-1.999 1.9-5.96-4.238a6.015 6.015 0 0 1-4.093-6.017l.354-6.768.725-1.988 5.155 1.468.239 7.554z" data-original="#f9c4c0"/><path fill="#c7dafa" d="M50.271 62.335h4.526V68h-4.526z" data-original="#c7dafa"/><path fill="#387094" d="M60.305 58.124H42.113v2.717h18.23v-2.713c-.013 0-.025-.004-.038-.004z" data-original="#387094"/><path fill="#315a79" d="M42.113 60.841h18.23v2.538h-18.23z" data-original="#315a79"/><path fill="#5592ff" d="M65.22 48.814h-3.97V68h9.606V54.458a5.642 5.642 0 0 0-5.637-5.644z" data-original="#5592ff"/><path fill="#79affe" d="M60.264 48.816v9.388H47.41a4.954 4.954 0 0 1-4.955-4.948v-4.44zM69.421 68V54.458a5.642 5.642 0 0 0-5.637-5.644h-3.52V68h9.157z" data-original="#79affe"/><path fill="#32327a" d="m47.224 26.417 10.38.578c.227-.569 2.011-4.517 2.758-6.77.812-2.472.596-8.299-2.568-10.239-3.163-1.946-4.412.19-4.412.19-6.525-2.827-7.241 7.653-6.353 10.196.733 2.095.35 5.072.195 6.045z" data-original="#32327a"/><path fill="#78d7a6" d="M64.405 36.112a.345.345 0 0 1-.33.402l-6.625.122-.251-1.04v-9.18l2.555.122c1.716.093 3.137 1.284 3.452 2.885z" data-original="#78d7a6"/><path fill="#78d7a6" d="M60.985 48.816V30.21a3.792 3.792 0 0 0-3.785-3.792L46.133 26.4a3.672 3.672 0 0 0-3.678 3.677v18.74z" data-original="#78d7a6"/><path fill="#f9c4c0" d="m55.136 26.417-.209 4.016-5.17-4.033z" data-original="#f9c4c0"/><path fill="#f9c4c0" d="M49.768 20.224h5.368v6.194h-5.368z" data-original="#f9c4c0"/><path fill="#fd9997" d="M55.136 19.117v5.005s-2.373 1.227-5.368.767v-5.772z" data-original="#fd9997"/><path fill="#f9c4c0" d="M59.161 16.633v3.23a4.693 4.693 0 0 1-4.695 4.695 4.697 4.697 0 0 1-4.695-4.695v-3.23a4.697 4.697 0 0 1 8.02-3.318 4.695 4.695 0 0 1 1.37 3.318z" data-original="#f9c4c0"/><ellipse cx="57.358" cy="18.194" fill="#333077" class="hovered-path" data-original="#333077" rx=".438" ry=".588"/><ellipse cx="54.18" cy="18.194" fill="#333077" class="hovered-path" data-original="#333077" rx=".438" ry=".588"/><path fill="#fff" d="M53.943 20.836c-.002.026-.008.05-.008.076a1.781 1.781 0 1 0 3.562 0c0-.026-.007-.05-.008-.076z" data-original="#ffffff"/><path fill="#f9c4c0" d="M49.768 17.548a1.57 1.57 0 0 0 0 3.138z" data-original="#f9c4c0"/><path fill="#32327a" d="M49.77 15.819s7.013.644 9.205-.495c2.192-1.14 0-3.015 0-3.015l-1.827-.804-4.234-1.072-3.143 1.072z" data-original="#32327a"/><path fill="#5db19c" d="m47.997 38.92.005-.366c.008-1.022.038-2.043.027-3.066 0-2.044-.01-4.088-.079-6.134-.155 2.041-.25 4.083-.336 6.125-.055 1.021-.068 2.043-.102 3.065l-.011.376zm12.988-2.351v-5.044l1.138 5.023z" data-original="#5db19c"/><path fill="#f9c4c0" d="M60.963 51.977a2.145 2.145 0 0 1-2.801.732l-3.118-1.646 1.135-4.805 3.273.46a.548.548 0 1 1 .145 1.087l-.926.095 1.686 1.13a2.145 2.145 0 0 1 .606 2.947z" data-original="#f9c4c0"/><path fill="#f9c4c0" d="m47.308 43.426-.159-6.252h-6.484l-.248 5.969a6.404 6.404 0 0 0 4.358 6.406l10.27 1.514 1.134-4.805z" data-original="#f9c4c0"/><path fill="#78d7a6" d="M47.5 37.608h-7.334v-5.419a5.79 5.79 0 0 1 5.79-5.79c.853 0 1.545.692 1.545 1.545z" data-original="#78d7a6"/><path fill="#363383" d="M24.518 18.25a.25.25 0 0 1-.234-.162 5.347 5.347 0 0 0-.364-.769l-1.19-2.086a.25.25 0 0 1 .435-.248l1.19 2.086c.158.278.291.56.397.84a.25.25 0 0 1-.234.339z" data-original="#363383"/><path fill="#315a79" d="M20.037 57.533c-.15 0-9.003-.705-9.684-.484-.681.23-5.448-.3-5.749-.3-.3 0-1.25-3.96-1.18-4.165l2.86-3.358 13.753 1.251s.15 7.056 0 7.056z" data-original="#315a79"/><path fill="#daeaf9" d="M9.427 57.855h3.624v10.037H9.427z" data-original="#daeaf9"/><path fill="#daeaf9" d="M6.384 60.681v1.002c0 .947.77 1.716 1.716 1.716h6.454c.947 0 1.716-.77 1.716-1.716v-1.002z" data-original="#daeaf9"/><path fill="#f1f7ff" d="M6.684 46.617v4.726c0 2.083 1.66 3.77 3.71 3.77 8.24.675 16.025 1.129 20.529 0v-3.839c0-3.734-2.978-4.657-6.652-4.657H6.684z" data-original="#f1f7ff"/><path fill="#75a0f3" d="M27.678 67.893v-12.87H21.62v-4.989l.096-.047a19.78 19.78 0 0 1 5.067-1.727 3.51 3.51 0 0 0-1.829-.483h6.057c2.154 0 3.912 1.734 3.912 3.88v16.236h-7.245z" data-original="#75a0f3"/><path fill="#95bcff" d="m21.53 67.893-.078-12.589-5.92-.282s1.892-2.866 6.088-4.988l.096-.047a19.78 19.78 0 0 1 5.067-1.727 3.837 3.837 0 0 1 2.05 3.397v16.236H21.53z" data-original="#95bcff"/><path fill="#f1f7ff" d="M30.948 47.777c-1.504.032-2.882.19-4.165.483a3.51 3.51 0 0 0-1.829-.483z" data-original="#f1f7ff"/><path fill="#387094" d="M5.043 60.678h16.175c1.183 0 2.143-.96 2.143-2.143v-.53a2.971 2.971 0 0 0-2.972-2.972H1.144v1.746a3.899 3.899 0 0 0 3.899 3.899z" data-original="#387094"/><path fill="#f1f7ff" d="M23.206 24.64v21.986H6.68V24.641a3.272 3.272 0 0 1 3.28-3.272h9.974a3.27 3.27 0 0 1 3.272 3.272z" data-original="#f1f7ff"/><path fill="#c7dafa" d="m23.14 42.627.066-13.804-.371.074-.05 13.73z" data-original="#c7dafa"/><path fill="#fdf3e3" d="m19.815 21.386-.768 4.292-.166.958-.357 1.995-1.456-1.647c-1.87-2.122-4.421-5.534-4.421-5.622z" data-original="#fdf3e3"/><path fill="#c7dafa" d="m26.868 48.194.172-.35-7.389-3.63-1.264-20.496-.389.025 1.278 20.72z" data-original="#c7dafa"/><path fill="#c7dafa" d="M23.206 40.89v4.273c-.393.172-.787.345-1.187.504-.884.359-1.788.683-2.706.96H8.883c-.718-.629-1.098-1.581-1.195-2.534-.103-.96.062-1.926.283-2.872a24.94 24.94 0 0 1 1.975-5.474c.49-.994 1.166-2.043 2.236-2.305l1.477.642c.815 2.147 2.568 3.845 4.57 4.963 1.546.863 3.244 1.422 4.977 1.843z" data-original="#c7dafa"/><path fill="#c7dafa" d="M16.527 46.624H6.681V34.556c.193-.384.393-.761.602-1.138l-.169-1.083c.77 2.446 1.556 4.915 2.718 7.209 1.163 2.293 2.718 4.434 4.803 5.949.593.433 1.227.81 1.892 1.13zm-2.624-9.018.071-9.924-.398.053-.053 9.871z" data-original="#c7dafa"/><path fill="#f9c4c0" d="M31.584 47.426a2.399 2.399 0 0 1-2.662 1.115l-4.282-1.107.497-5.7 1.86-.762a.74.74 0 0 1 .602 1.355l-.89.425 3.576 1.21c1.427.481 2.052 2.157 1.299 3.464z" data-original="#f9c4c0"/><path fill="#387094" d="M1.146 30.677v27.18H6.72V26.722a.809.809 0 0 0-.809-.809 4.764 4.764 0 0 0-4.764 4.764z" data-original="#387094"/><path fill="#f1f7ff" d="m13.58 37.93-.139-13.007a3.603 3.603 0 0 0-7.206-.008l-.182 14.216a6.549 6.549 0 0 0 5.581 6.644l13.018 1.684.502-5.7z" data-original="#f1f7ff"/><path fill="#48609d" d="M26.03 10.596c-.327 1.905-1.795 3.243-3.28 2.988s-2.72-1.675-2.394-3.58 2.093-3.574 3.578-3.32c1.484.256 2.423 2.006 2.096 3.912zm-15.482-.828c-.385 2.246.79 5.585 2.798 6.137.071.02.144.032.216.045 1.755.3 3.544-1.593 4.35-3.566.026-.062.05-.117.07-.181.144-.37.246-.746.308-1.107a4.452 4.452 0 0 0-.008-1.6c-.203-1.157-.856-2.161-1.788-2.752a3.576 3.576 0 0 0-1.351-.53.483.483 0 0 0-.103-.01 3.619 3.619 0 0 0-2.41.487.889.889 0 0 0-.15.093c-.2.122-.396.274-.58.436a4.55 4.55 0 0 0-1.352 2.548z" data-original="#48609d"/><path fill="#f9c4c0" d="m13.709 21.308 5.44.07v-6.6l-5.222 1.533-.024.591z" data-original="#f9c4c0"/><path fill="#fd9997" d="M13.903 16.902a4.751 4.751 0 0 0 5.247 3.363v-5.488l-5.223 1.534z" data-original="#fd9997"/><path fill="#f9c4c0" d="m23.76 12.8-.553 3.229a4.758 4.758 0 0 1-5.497 3.887 4.758 4.758 0 0 1-3.887-5.497l.554-3.228a4.762 4.762 0 0 1 5.496-3.887 4.728 4.728 0 0 1 3.08 1.945c.706.99 1.03 2.256.808 3.551z" data-original="#f9c4c0"/><path fill="#48609d" d="M11.233 8.244c-.225 1.312 1.095 3.456 2.691 3.73.874.15 2.062-.404 2.992-1.148.79-.616 1.396-1.374 1.497-1.967.225-1.312-2.007-2.428-3.595-2.7-1.026-.176-2.123.198-2.835.833-.395.354-.67.79-.75 1.252z" data-original="#48609d"/><path fill="#48609d" d="M25.942 9.194c-.182 3.59-13.403 1.693-13.14-1.747.334-4.385 5.21-3.549 8.433-2.996s4.814 2.64 4.707 4.743z" data-original="#48609d"/><ellipse cx="18.601" cy="13.37" fill="#424357" data-original="#424357" rx=".743" ry=".444" transform="rotate(-80.27 18.591 13.365)"/><ellipse cx="21.716" cy="13.904" fill="#424357" data-original="#424357" rx=".743" ry=".444" transform="rotate(-80.27 21.705 13.9)"/><path fill="#fff" d="M18.002 16.138c-.006.026-.017.049-.021.075a1.806 1.806 0 1 0 3.56.61c.004-.026.001-.051.005-.077z" data-original="#ffffff"/><path fill="#fcba97" d="m19.047 25.678-.166.958-.357 1.995-1.456-1.647-.048-5.352h1.235v.008z" data-original="#fcba97"/><path d="m19.047 25.678-.166.958-.982-4.996h.356z" data-original="#000000" opacity=".08"/><path fill="#fcba97" d="m19.815 21.383-1.84 3.41-2.822-3.41z" data-original="#fcba97"/><path fill="#e9d8be" d="m12.647 21.382 1.06-1.063 3.55 1.063-.99 2.215zm6.807 2.008-2.197-2.008 1.892-.807.651.807z" data-original="#e9d8be"/><path fill="#f9c4c0" d="M12.895 12.97a1.18 1.18 0 0 0 .95 1.375l.43-2.326a1.181 1.181 0 0 0-1.38.95z" data-original="#f9c4c0"/><path fill="#363383" d="M21.463 22.55c-2.497 0-5.398-1.702-6.728-4.04l-1.813-3.183c-.33-.58-.388-1.18-.156-1.647.208-.417.62-.686 1.162-.756a.251.251 0 0 1 .28.216.25.25 0 0 1-.215.28c-.371.048-.648.22-.78.484-.156.313-.104.742.143 1.176l1.813 3.184c1.358 2.384 4.445 4.065 6.889 3.749.987-.128 1.727-.56 2.141-1.25.433-.72.463-1.67.085-2.675a.25.25 0 1 1 .468-.176c.433 1.15.39 2.255-.124 3.109-.488.813-1.379 1.341-2.506 1.488a5.141 5.141 0 0 1-.659.041z" data-original="#363383"/><path fill="#f9c4c0" d="m31.82 30.088-.2-1.335a.834.834 0 1 1 1.658-.134l.008.648 1.57-.561a2.273 2.273 0 0 1 2.12 3.965l-3.332 2.473z" data-original="#f9c4c0"/><path fill="#363383" d="M29.211 37.097c-1.585-.477-3.008-1.663-4.35-3.626A19.639 19.639 0 0 1 21.47 22.36a.25.25 0 0 1 .25-.249h.001a.25.25 0 0 1 .249.251 19.136 19.136 0 0 0 3.305 10.827c1.274 1.864 2.609 2.986 4.08 3.43a5.097 5.097 0 0 0 3.984-.48 5.094 5.094 0 0 0 2.354-3.25.25.25 0 0 1 .488.106 5.599 5.599 0 0 1-2.588 3.575 5.6 5.6 0 0 1-4.382.527z" data-original="#363383"/><ellipse cx="35.821" cy="30.99" fill="#5150ac" data-original="#5150ac" rx="2.23" ry="2.348"/></g></svg>