<svg xmlns="http://www.w3.org/2000/svg" xml:space="preserve" width="512" height="512" style="enable-background:new 0 0 512 512" viewBox="0 0 64 64"><path xmlns="http://www.w3.org/2000/svg" fill="#f4b2b0" d="M49.039 15.763a5.93 5.93 0 0 1-1.308-3.35 7.973 7.973 0 0 0-7.144-7.144 5.93 5.93 0 0 1-3.35-1.308 7.973 7.973 0 0 0-10.474 0 5.93 5.93 0 0 1-3.35 1.308 7.973 7.973 0 0 0-7.144 7.144 5.93 5.93 0 0 1-1.308 3.35 7.973 7.973 0 0 0 0 10.474 5.93 5.93 0 0 1 1.308 3.35 7.973 7.973 0 0 0 7.144 7.144 5.93 5.93 0 0 1 3.35 1.308 7.973 7.973 0 0 0 10.474 0 5.93 5.93 0 0 1 3.35-1.308 7.973 7.973 0 0 0 7.144-7.144 5.93 5.93 0 0 1 1.308-3.35 7.973 7.973 0 0 0 0-10.474zM32 34a13 13 0 1 1 13-13 13 13 0 0 1-13 13z" data-original="#f4b2b0"/><g xmlns="http://www.w3.org/2000/svg" fill="#b3404a"><path d="M32 35a14 14 0 1 0-14-14 14.015 14.015 0 0 0 14 14zm0-26a12 12 0 1 1-12 12A12.013 12.013 0 0 1 32 9z" data-original="#b3404a"/><path d="M29 30a1 1 0 0 0 .707-.293l12-12a1 1 0 0 0 0-1.414l-3-3a1 1 0 0 0-1.414 0L29 21.586l-2.293-2.293a1 1 0 0 0-1.414 0l-3 3a1 1 0 0 0 0 1.414l6 6A1 1 0 0 0 29 30zm-3-8.586 2.293 2.293a1 1 0 0 0 1.414 0L38 15.414 39.586 17 29 27.586 24.414 23z" data-original="#b3404a"/><path d="M58 35H46.272a9 9 0 0 0 2.455-5.314 4.894 4.894 0 0 1 1.066-2.792 8.974 8.974 0 0 0 0-11.788 4.894 4.894 0 0 1-1.066-2.793 8.973 8.973 0 0 0-8.041-8.04 4.894 4.894 0 0 1-2.792-1.066 8.974 8.974 0 0 0-11.788 0 4.894 4.894 0 0 1-2.793 1.066 8.973 8.973 0 0 0-8.04 8.041 4.894 4.894 0 0 1-1.066 2.792 8.974 8.974 0 0 0 0 11.788 4.894 4.894 0 0 1 1.066 2.793A9 9 0 0 0 17.728 35H6a5.006 5.006 0 0 0-5 5v18a5.006 5.006 0 0 0 5 5h52a5.006 5.006 0 0 0 5-5V40a5.006 5.006 0 0 0-5-5zm-42.285-9.419a6.976 6.976 0 0 1 0-9.162 6.839 6.839 0 0 0 1.549-3.906 6.968 6.968 0 0 1 6.248-6.249 6.84 6.84 0 0 0 3.907-1.549 6.976 6.976 0 0 1 9.162 0 6.839 6.839 0 0 0 3.906 1.549 6.968 6.968 0 0 1 6.249 6.248 6.84 6.84 0 0 0 1.549 3.907 6.976 6.976 0 0 1 0 9.162 6.839 6.839 0 0 0-1.549 3.906 6.97 6.97 0 0 1-6.248 6.249 6.84 6.84 0 0 0-3.907 1.549 6.976 6.976 0 0 1-9.162 0 6.839 6.839 0 0 0-3.906-1.549 6.97 6.97 0 0 1-6.249-6.248 6.84 6.84 0 0 0-1.549-3.907zM61 58a3 3 0 0 1-3 3H6a3 3 0 0 1-3-3V40a3 3 0 0 1 3-3h14.586a8.993 8.993 0 0 0 2.728.727 4.894 4.894 0 0 1 2.792 1.066 8.974 8.974 0 0 0 11.788 0 4.894 4.894 0 0 1 2.793-1.066A8.995 8.995 0 0 0 43.414 37H58a3 3 0 0 1 3 3z" data-original="#b3404a"/><path d="M9.98 44.8A1 1 0 0 0 9 44H7a1 1 0 0 0-.98.8l-1 5A1 1 0 0 0 5 50v4h2v-3h2v3h2v-4a1 1 0 0 0-.02-.2zM8.181 46l.6 3H7.22l.6-3zM15 44h-2a1 1 0 0 0-1 1v9h2v-4h1a3 3 0 0 0 0-6zm0 4h-1v-2h1a1 1 0 0 1 0 2zm7-4h-2a1 1 0 0 0-1 1v9h2v-4h1a3 3 0 0 0 0-6zm0 4h-1v-2h1a1 1 0 0 1 0 2zm10-1a3 3 0 0 0-3-3h-2a1 1 0 0 0-1 1v9h2v-4h.558A5.867 5.867 0 0 1 30 53.828V54h2v-.172a7.879 7.879 0 0 0-1.32-4.344A3 3 0 0 0 32 47zm-4-1h1a1 1 0 0 1 0 2h-1zm16 2.877L43.219 52h-.438L42 48.877V44h-2v5a.984.984 0 0 0 .03.242l1 4A1 1 0 0 0 42 54h2a1 1 0 0 0 .97-.758l1-4A.984.984 0 0 0 46 49v-5h-2zM47 45v8a1 1 0 0 0 1 1h4v-2h-3v-2h3v-2h-3v-2h3v-2h-4a1 1 0 0 0-1 1zm-11-1a3 3 0 0 0-3 3v4a3 3 0 0 0 6 0v-4a3 3 0 0 0-3-3zm1 7a1 1 0 0 1-2 0v-4a1 1 0 0 1 2 0zm19-7h-2a1 1 0 0 0-1 1v8a1 1 0 0 0 1 1h2a3 3 0 0 0 3-3v-4a3 3 0 0 0-3-3zm1 7a1 1 0 0 1-1 1h-1v-6h1a1 1 0 0 1 1 1z" data-original="#b3404a"/></g></svg>