<svg xmlns="http://www.w3.org/2000/svg" xml:space="preserve" width="512" height="512" style="enable-background:new 0 0 512 512" viewBox="0 0 497 497"><g xmlns="http://www.w3.org/2000/svg"><path fill="#8ac9fe" d="M379.59 450.704H122.348c-11.046 0-20-8.954-20-20V61.358H69.2c-12.103 0-21.914 9.811-21.914 21.914v391.815C47.286 487.189 57.097 497 69.2 497h288.477c12.103 0 21.914-9.811 21.914-21.914v-24.382z" data-original="#8ac9fe"/><path fill="#60b7ff" d="M102.348 61.358v369.346c0 11.046 8.954 20 20 20H379.59v24.383c0 4.268-1.225 8.249-3.336 11.617H104.262c-12.102 0-21.913-9.811-21.913-21.914v-16l10-375.815z" data-original="#60b7ff"/><path fill="#fed402" d="M414.652 415.642H157.41c-11.046 0-20-8.954-20-20V35.062h-33.148c-12.102 0-21.913 9.811-21.913 21.914V448.79c0 12.103 9.811 21.914 21.913 21.914h288.477c12.103 0 21.914-9.811 21.914-21.914v-33.148z" data-original="#fed402"/><path fill="#fac600" d="M137.41 35.062v360.58c0 11.046 8.954 20 20 20h257.242v33.148c0 1.784-.218 3.515-.62 5.175H139.323c-12.102 0-21.913-9.811-21.913-21.914v-18.323l10-27.665V40.237z" data-original="#fac600"/><path fill="#efedef" d="M425.8 435.642H139.323c-12.102 0-21.913-9.811-21.913-21.914V21.914C117.41 9.811 127.221 0 139.323 0h221.616l86.774 88.774v324.954c.001 12.103-9.81 21.914-21.913 21.914z" data-original="#efedef"/><path fill="#d7d0d6" d="M419.714 58.774v354.954c0 12.103-9.811 21.914-21.913 21.914h30c12.103 0 21.913-9.811 21.913-21.914V88.774z" data-original="#d7d0d6"/><path fill="#b5adb6" d="M449.714 88.774H382.85c-12.1 0-21.91-9.809-21.91-21.91V0zm-66.074 80.959H183.484a7.5 7.5 0 0 1 0-15H383.64a7.5 7.5 0 0 1 0 15zm0 55.588H183.484a7.5 7.5 0 0 1 0-15H383.64a7.5 7.5 0 0 1 0 15zm0 55.588H183.484a7.5 7.5 0 0 1 0-15H383.64a7.5 7.5 0 0 1 0 15z" data-original="#b5adb6"/></g></svg>