<svg xmlns="http://www.w3.org/2000/svg" xml:space="preserve" width="512" height="512" style="enable-background:new 0 0 512 512" viewBox="0 0 64 64"><path xmlns="http://www.w3.org/2000/svg" fill="#c4a2fc" d="M53.628 22.071 33.807 30H18a1 1 0 0 0-1 1v1.382L13.553 34.1A1 1 0 0 0 13 35v8a1 1 0 0 0 .553.9L17 45.618V47a1 1 0 0 0 1 1h15.807l19.821 7.929A1 1 0 0 0 55 55V23a1 1 0 0 0-1.372-.929zM17 43.382l-2-1v-6.764l2-1zM33 46h-2V32h2zm18 3.092a1 1 0 0 1-2 0V28.908a1 1 0 0 1 2 0zm7.371-19.564 4-1.6a1 1 0 0 0-.742-1.858l-4 1.6a1 1 0 1 0 .742 1.857zm4 20.543-4-1.6a1 1 0 1 0-.742 1.857l4 1.6a1 1 0 0 0 .742-1.858zM57 35.382v7.236c.891-.625 3.528-1.036 3.528-3.618 0-2.631-2.705-3.041-3.528-3.618z" data-original="#c4a2fc"/><path xmlns="http://www.w3.org/2000/svg" fill="#c4a2fc" d="M31.835 50h-10.07l2.873 10.773A3 3 0 0 0 27.537 63H31.4a3 3 0 0 0 2.9-3.773z" data-original="#c4a2fc"/><g xmlns="http://www.w3.org/2000/svg" fill="#151a6a"><path d="M36 1H4a3 3 0 0 0-3 3v41a3 3 0 0 0 3 3h32a3 3 0 0 0 3-3V4a3 3 0 0 0-3-3zm1 44a1 1 0 0 1-1 1H4a1 1 0 0 1-1-1V4a1 1 0 0 1 1-1h32a1 1 0 0 1 1 1z" data-original="#151a6a"/><path d="M34 31H6a1 1 0 0 0 0 2h28a1 1 0 0 0 0-2zm0-5h-8a1 1 0 0 0 0 2h8a1 1 0 0 0 0-2zm0 10H6a1 1 0 0 0 0 2h28a1 1 0 0 0 0-2zm-20 5H6a1 1 0 0 0 0 2h8a1 1 0 0 0 0-2zm20-20h-8a1 1 0 0 0 0 2h8a1 1 0 0 0 0-2zm0-5h-8a1 1 0 0 0 0 2h8a1 1 0 0 0 0-2zm0-5h-8a1 1 0 0 0 0 2h8a1 1 0 0 0 0-2zm0-5h-8a1 1 0 0 0 0 2h8a1 1 0 0 0 0-2zM6 28h16a1 1 0 0 0 1-1v-1a9 9 0 0 0-5.184-8.139 7 7 0 1 0-7.632 0A9 9 0 0 0 5 26v1a1 1 0 0 0 1 1zm3-16a5 5 0 1 1 5 5 5.006 5.006 0 0 1-5-5zm5 7a7.008 7.008 0 0 1 7 7H7a7.008 7.008 0 0 1 7-7z" data-original="#151a6a"/></g></svg>