<svg xmlns="http://www.w3.org/2000/svg" xml:space="preserve" width="512" height="512" style="enable-background:new 0 0 512 512" viewBox="0 0 497 497"><g xmlns="http://www.w3.org/2000/svg"><path fill="#7ca1b1" d="M248.486 6.243V26.14l-74.235 5.027-78.815-5.027V6.243A6.243 6.243 0 0 1 101.679 0h140.564a6.243 6.243 0 0 1 6.243 6.243z" data-original="#7ca1b1"/><path fill="#678d98" d="M248.49 6.24v19.9l-32 2V6.24c0-3.45-2.8-6.24-6.25-6.24h32c3.45 0 6.25 2.79 6.25 6.24z" data-original="#678d98"/><path fill="#5986cb" d="M334.886 56.41v402.42c0 16.72-13.55 30.27-30.27 30.27H39.306c-16.72 0-30.28-13.55-30.28-30.27V56.41c0-16.72 13.56-30.27 30.28-30.27h15.975l116.684 7.694L285.95 26.14h18.666c16.72 0 30.27 13.55 30.27 30.27z" data-original="#5986cb"/><path fill="#4278c3" d="M334.89 56.41v402.42c0 16.72-13.55 30.27-30.27 30.27h-18.67c16.72 0 30.27-13.55 30.27-30.27V56.41c0-31.327-26.8-30.27-26.8-30.27h15.2c16.72 0 30.27 13.55 30.27 30.27z" data-original="#4278c3"/><path fill="#c8effe" d="M304.62 41.34v381.77c0 8.4-6.81 15.2-15.2 15.2H54.51c-8.4 0-15.2-6.8-15.2-15.2V41.34c0-8.39 6.8-15.2 15.2-15.2h234.91c8.39 0 15.2 6.81 15.2 15.2z" data-original="#c8effe"/><path fill="#99e6fc" d="M304.62 41.34v381.77c0 8.4-6.81 15.2-15.2 15.2H262.6c8.4 0 15.2-6.8 15.2-15.2V41.34c0-8.39-6.8-15.2-15.2-15.2h26.82c8.39 0 15.2 6.81 15.2 15.2z" data-original="#99e6fc"/><path fill="#7ca1b1" d="M264.127 131.158H84.375a5.968 5.968 0 0 1-5.968-5.968v-18.064a5.968 5.968 0 0 1 5.968-5.968h179.752a5.968 5.968 0 0 1 5.968 5.968v18.064a5.968 5.968 0 0 1-5.968 5.968z" data-original="#7ca1b1"/><path fill="#eaf6ff" d="M220.77 26.14v14.05c0 9.51-7.73 17.25-17.24 17.25h-63.14c-9.51 0-17.24-7.74-17.24-17.25V26.14h-15v14.05c0 17.78 14.46 32.25 32.24 32.25h63.14c17.78 0 32.24-14.47 32.24-32.25V26.14z" data-original="#eaf6ff"/><path fill="#7ca1b1" d="M127.729 188.148H85.906a7.5 7.5 0 0 1 0-15h41.823a7.5 7.5 0 0 1 0 15zm91.648 49.491H85.906a7.5 7.5 0 0 1 0-15h133.47a7.5 7.5 0 0 1 .001 15zm-13.261 49.49H85.906a7.5 7.5 0 0 1 0-15h120.209a7.5 7.5 0 0 1 .001 15zm-13.261 49.491H85.906a7.5 7.5 0 0 1 0-15h106.949a7.5 7.5 0 0 1 0 15zm-65.126 49.491H85.906a7.5 7.5 0 0 1 0-15h41.823a7.5 7.5 0 0 1 0 15z" data-original="#7ca1b1"/><path fill="#99e6fc" d="m480.222 191.637-196.94-52.77c-5.578-1.495-11.311 1.816-12.806 7.393l-76.313 284.806c-1.495 5.578 1.816 11.311 7.393 12.806l196.94 52.77c5.578 1.495 11.311-1.816 12.806-7.393l76.313-284.806c1.495-5.578-1.815-11.311-7.393-12.806z" data-original="#99e6fc"/><path fill="#eaf6ff" d="m462.942 161.714-76.313 284.803c-1.493 5.573-7.228 8.892-12.801 7.399l-196.943-52.771c-5.573-1.493-8.89-7.237-7.396-12.811l76.313-284.803c1.496-5.583 7.237-8.89 12.811-7.396l196.943 52.771c5.572 1.493 8.882 7.225 7.386 12.808z" data-original="#eaf6ff"/><path fill="#c8effe" d="m462.94 161.71-76.31 284.81c-1.49 5.57-7.23 8.89-12.8 7.4l-31.56-8.46c5.57 1.49 11.32-1.82 12.81-7.4l76.31-284.8c1.49-5.55-1.78-11.26-7.3-12.78l31.46 8.43c5.58 1.49 8.89 7.22 7.39 12.8z" data-original="#c8effe"/><circle cx="303.335" cy="323.106" r="73.713" fill="#46cc8d" data-original="#46cc8d"/><path fill="#80b4fb" d="m397.838 233.335-131.46-35.225a5.664 5.664 0 0 1-4.005-6.937l12.375-46.186a5.664 5.664 0 0 1 6.938-4.005l131.46 35.225a5.664 5.664 0 0 1 4.005 6.937l-12.375 46.186a5.666 5.666 0 0 1-6.938 4.005z" data-original="#80b4fb"/><path fill="#b0e7c9" d="M299.276 345.783a7.497 7.497 0 0 1-6.502-3.751l-24.243-41.99a7.5 7.5 0 0 1 12.99-7.5l20.493 35.495 66.234-38.24a7.5 7.5 0 0 1 7.5 12.99l-72.729 41.99a7.465 7.465 0 0 1-3.743 1.006z" data-original="#b0e7c9"/></g></svg>