<svg xmlns="http://www.w3.org/2000/svg" xml:space="preserve" width="512" height="512" style="enable-background:new 0 0 512 512"><g xmlns="http://www.w3.org/2000/svg"><path fill="#a1d51c" d="M466.449 55.362v211.057H45.553V55.362c0-17.269 13.999-31.268 31.268-31.268H435.18c17.27 0 31.269 13.999 31.269 31.268z" data-original="#a1d51c"/><path d="M466.457 55.366v211.057h-22.955V78.296c0-17.249-13.993-31.268-31.268-31.268H53.88a30.47 30.47 0 0 0-7.426.912c3.31-13.679 15.66-23.841 30.356-23.841h358.38c17.25 0 31.267 13.991 31.267 31.267z" data-original="#000000" opacity=".1"/><path fill="#eef0ee" d="M466.449 266.419v211.057c0 17.269-13.999 31.268-31.268 31.268H76.821c-17.269 0-31.268-13.999-31.268-31.268V266.419z" data-original="#eef0ee"/><path d="M466.457 266.423V477.48c0 13.263-8.26 24.572-19.881 29.131a31.29 31.29 0 0 0 2.137-11.413v-189.9c0-11.673-9.458-21.158-21.158-21.158H45.543v-17.718h420.914z" data-original="#000000" opacity=".1"/><path fill="#65c5ef" d="M209.746 297.685H82.033a5.21 5.21 0 0 0-5.211 5.211v120.517a5.21 5.21 0 0 0 5.211 5.211h127.713a5.21 5.21 0 0 0 5.211-5.211V302.897a5.212 5.212 0 0 0-5.211-5.212z" data-original="#65c5ef"/><path fill="#f9e109" d="M202.177 428.626H89.601c0-31.068 25.211-56.278 56.278-56.278 31.087-.001 56.298 25.21 56.298 56.278z" data-original="#f9e109"/><path fill="#f9e109" d="M174.52 354.101c0 15.815-12.824 28.639-28.639 28.639-15.8 0-28.623-12.824-28.623-28.639 0-15.8 12.823-28.623 28.623-28.623 15.815 0 28.639 12.823 28.639 28.623z" data-original="#f9e109"/><path fill="#fff" d="M131.259 48.197h-30.85a3.257 3.257 0 1 1 0-6.514h30.85a3.257 3.257 0 1 1 0 6.514zm26.031 0h-8.963a3.257 3.257 0 1 1 0-6.514h8.963a3.257 3.257 0 1 1 0 6.514z" data-original="#ffffff"/><path d="M24.697 335.059a3.257 3.257 0 0 0-3.257 3.257v49.064a3.257 3.257 0 1 0 6.514 0v-49.064a3.257 3.257 0 0 0-3.257-3.257zm0-26.057a3.257 3.257 0 0 0-3.257 3.257v8.99a3.258 3.258 0 1 0 6.514 0v-8.99a3.257 3.257 0 0 0-3.257-3.257zM435.19 6.514c26.841 0 48.758 21.84 48.856 48.685a3.257 3.257 0 0 0 3.258 3.246h.011a3.258 3.258 0 0 0 3.246-3.269C490.45 24.753 465.611 0 435.191 0a3.257 3.257 0 0 0-.001 6.514zm52.113 62.248a3.258 3.258 0 0 0-3.258 3.257v8.234a3.257 3.257 0 1 0 6.515 0V72.02a3.259 3.259 0 0 0-3.257-3.258z" data-original="#000000"/><path d="M435.181 20.837H76.822c-19.037 0-34.525 15.487-34.525 34.525v422.113c0 19.037 15.487 34.525 34.525 34.525h358.359c19.037 0 34.525-15.487 34.525-34.525V55.362c-.001-19.037-15.488-34.525-34.525-34.525zm28.01 456.638c0 15.445-12.565 28.01-28.01 28.01H76.822c-15.445 0-28.01-12.565-28.01-28.01V269.676h414.381v207.799zm0-214.314H48.811V55.362c0-15.445 12.565-28.01 28.01-28.01H435.18c15.445 0 28.01 12.565 28.01 28.01v207.799z" data-original="#000000"/><path d="M76.822 207.139h52.027a3.257 3.257 0 1 0 0-6.514H76.822a3.257 3.257 0 1 0 0 6.514zm102.109 0h52.029a3.257 3.257 0 1 0 0-6.514h-52.029a3.257 3.257 0 1 0 0 6.514zm102.111 0h52.027a3.257 3.257 0 1 0 0-6.514h-52.027a3.257 3.257 0 1 0 0 6.514zm154.139-6.514h-52.027a3.258 3.258 0 1 0 0 6.514h52.027a3.258 3.258 0 1 0 0-6.514zm0 31.268H76.822a3.257 3.257 0 1 0 0 6.514h358.359a3.258 3.258 0 1 0 0-6.514zM173.15 457.528a3.257 3.257 0 1 0 0-6.514h-54.523a3.257 3.257 0 1 0 0 6.514zm26.181 16.698H92.448a3.257 3.257 0 1 0 0 6.514h106.883a3.257 3.257 0 1 0 0-6.514zM82.033 431.883h127.712c4.67 0 8.468-3.799 8.468-8.468V302.896c0-4.67-3.799-8.468-8.468-8.468H82.033c-4.67 0-8.468 3.799-8.468 8.468v120.518c-.001 4.67 3.799 8.469 8.468 8.469zm10.925-6.514c1.277-20.967 14.81-38.649 33.495-46.038 5.386 4.162 12.113 6.666 19.429 6.666 7.296 0 14.006-2.488 19.386-6.625 18.705 7.383 32.277 25.022 33.554 45.997zm52.924-45.887c-13.986 0-25.366-11.387-25.366-25.382 0-13.986 11.379-25.366 25.366-25.366 13.995 0 25.382 11.379 25.382 25.366-.001 13.996-11.388 25.382-25.382 25.382zm-65.804-76.586c0-1.077.876-1.954 1.954-1.954h127.712c1.077 0 1.954.876 1.954 1.954v120.518a1.956 1.956 0 0 1-1.954 1.954h-4.439c-1.233-22.675-15.195-41.994-34.87-50.938 4.581-5.523 7.34-12.609 7.34-20.33 0-17.578-14.308-31.88-31.896-31.88-17.578 0-31.88 14.302-31.88 31.88 0 7.726 2.763 14.817 7.349 20.342-19.673 8.942-33.638 28.247-34.872 50.926h-4.445a1.956 1.956 0 0 1-1.954-1.954c.001.001.001-120.518.001-120.518zm166.151 12.62h57.742a3.257 3.257 0 1 0 0-6.515h-57.742a3.257 3.257 0 1 0 0 6.515zm0 30.057H435.18a3.257 3.257 0 1 0 0-6.514H246.229a3.257 3.257 0 1 0 0 6.514zm0 37.527h57.742a3.257 3.257 0 1 0 0-6.514h-57.742a3.257 3.257 0 1 0 0 6.514zm0 30.057H435.18a3.257 3.257 0 1 0 0-6.515H246.229a3.257 3.257 0 1 0 0 6.515zm0 37.526h57.742a3.257 3.257 0 1 0 0-6.515h-57.742a3.257 3.257 0 1 0 0 6.515zm0 30.057H435.18a3.257 3.257 0 1 0 0-6.515H246.229a3.257 3.257 0 1 0 0 6.515z" data-original="#000000"/></g></svg>